# Blender v2.76 (sub 0) OBJ File: ''
# www.blender.org
o Cylinder
v 0.000000 -0.064040 -0.003530
v 0.000000 0.064040 -0.003530
v 0.001351 -0.064040 -0.003261
v 0.001351 0.064040 -0.003261
v 0.002496 -0.064040 -0.002496
v 0.002496 0.064040 -0.002496
v 0.003261 -0.064040 -0.001351
v 0.003261 0.064040 -0.001351
v 0.003530 -0.064040 0.000000
v 0.003530 0.064040 0.000000
v 0.003261 -0.064040 0.001351
v 0.003261 0.064040 0.001351
v 0.002496 -0.064040 0.002496
v 0.002496 0.064040 0.002496
v 0.001351 -0.064040 0.003261
v 0.001351 0.064040 0.003261
v 0.000000 -0.064040 0.003530
v 0.000000 0.064040 0.003530
v -0.001351 -0.064040 0.003261
v -0.001351 0.064040 0.003261
v -0.002496 -0.064040 0.002496
v -0.002496 0.064040 0.002496
v -0.003261 -0.064040 0.001351
v -0.003261 0.064040 0.001351
v -0.003530 -0.064040 -0.000000
v -0.003530 0.064040 -0.000000
v -0.003261 -0.064040 -0.001351
v -0.003261 0.064040 -0.001351
v -0.002496 -0.064040 -0.002496
v -0.002496 0.064040 -0.002496
v -0.001351 -0.064040 -0.003261
v -0.001351 0.064040 -0.003261
vt 1.000000 0.000000
vt 1.000000 1.000000
vt 0.000000 1.000000
vt 0.691342 0.038060
vt 0.038060 0.308658
vt 0.308659 0.961940
vt 0.000000 0.000000
vt 0.500000 1.000000
vt 0.691342 0.961940
vt 0.853553 0.853553
vt 0.961940 0.691342
vt 1.000000 0.500000
vt 0.961940 0.308658
vt 0.853553 0.146447
vt 0.500000 0.000000
vt 0.308658 0.038060
vt 0.146447 0.146446
vt 0.000000 0.500000
vt 0.038060 0.691342
vt 0.146447 0.853554
vn 0.000000 0.665700 -0.746200
vn 0.285500 0.665700 -0.689400
vn 0.285500 -0.665700 -0.689400
vn 0.527600 0.665700 -0.527600
vn 0.527600 -0.665700 -0.527600
vn 0.689400 0.665700 -0.285500
vn 0.689400 -0.665700 -0.285500
vn 0.746200 0.665700 0.000000
vn 0.746200 -0.665700 0.000000
vn 0.689400 0.665700 0.285500
vn 0.689400 -0.665700 0.285500
vn 0.527600 0.665700 0.527600
vn 0.527600 -0.665700 0.527600
vn 0.285500 0.665700 0.689400
vn 0.285500 -0.665700 0.689400
vn 0.000000 0.665700 0.746200
vn 0.000000 -0.665700 0.746200
vn -0.285500 0.665700 0.689400
vn -0.285500 -0.665700 0.689400
vn -0.527600 0.665700 0.527600
vn -0.527600 -0.665700 0.527600
vn -0.689400 0.665700 0.285500
vn -0.689400 -0.665700 0.285500
vn -0.746200 0.665700 0.000000
vn -0.746200 -0.665700 0.000000
vn -0.689400 0.665700 -0.285500
vn -0.689400 -0.665700 -0.285500
vn -0.527600 0.665700 -0.527600
vn -0.527600 -0.665700 -0.527600
vn -0.285600 0.665700 -0.689400
vn 0.000000 -0.665700 -0.746200
vn -0.285500 -0.665700 -0.689400
s 1
f 2/1/1 4/2/2 3/3/3
f 4/1/2 6/2/4 5/3/5
f 6/1/4 8/2/6 7/3/7
f 8/1/6 10/2/8 9/3/9
f 10/1/8 12/2/10 11/3/11
f 12/1/10 14/2/12 13/3/13
f 14/1/12 16/2/14 15/3/15
f 16/1/14 18/2/16 17/3/17
f 18/1/16 20/2/18 19/3/19
f 20/1/18 22/2/20 21/3/21
f 22/1/20 24/2/22 23/3/23
f 24/1/22 26/2/24 25/3/25
f 26/1/24 28/2/26 27/3/27
f 28/1/26 30/2/28 29/3/29
f 22/4/20 14/5/12 6/6/4
f 32/1/30 2/2/1 1/3/31
f 30/1/28 32/2/30 31/3/32
f 15/4/15 23/5/23 31/6/32
f 1/7/31 2/1/1 3/3/3
f 3/7/3 4/1/2 5/3/5
f 5/7/5 6/1/4 7/3/7
f 7/7/7 8/1/6 9/3/9
f 9/7/9 10/1/8 11/3/11
f 11/7/11 12/1/10 13/3/13
f 13/7/13 14/1/12 15/3/15
f 15/7/15 16/1/14 17/3/17
f 17/7/17 18/1/16 19/3/19
f 19/7/19 20/1/18 21/3/21
f 21/7/21 22/1/20 23/3/23
f 23/7/23 24/1/22 25/3/25
f 25/7/25 26/1/24 27/3/27
f 27/7/27 28/1/26 29/3/29
f 6/6/4 4/8/2 2/9/1
f 2/9/1 32/10/30 30/11/28
f 30/11/28 28/12/26 26/13/24
f 26/13/24 24/14/22 22/4/20
f 22/4/20 20/15/18 14/5/12
f 18/16/16 16/17/14 14/5/12
f 14/5/12 12/18/10 6/6/4
f 10/19/8 8/20/6 6/6/4
f 6/6/4 2/9/1 30/11/28
f 30/11/28 26/13/24 22/4/20
f 20/15/18 18/16/16 14/5/12
f 12/18/10 10/19/8 6/6/4
f 6/6/4 30/11/28 22/4/20
f 31/7/32 32/1/30 1/3/31
f 29/7/29 30/1/28 31/3/32
f 31/6/32 1/8/31 3/9/3
f 3/9/3 5/10/5 7/11/7
f 7/11/7 9/12/9 11/13/11
f 11/13/11 13/14/13 15/4/15
f 15/4/15 17/15/17 19/16/19
f 19/16/19 21/17/21 23/5/23
f 23/5/23 25/18/25 27/19/27
f 27/19/27 29/20/29 31/6/32
f 31/6/32 3/9/3 15/4/15
f 7/11/7 11/13/11 15/4/15
f 15/4/15 19/16/19 23/5/23
f 23/5/23 27/19/27 31/6/32
f 3/9/3 7/11/7 15/4/15
