# Blender v2.79 (sub 0) OBJ File: 'hapticsScene.blend'
# www.blender.org
o Cylinder
v 0.000000 -0.013257 -0.011160
v 0.000000 -0.013257 -0.056109
v -0.002586 -0.013002 -0.011160
v -0.002586 -0.013002 -0.056109
v -0.005073 -0.012248 -0.011160
v -0.005073 -0.012248 -0.056109
v -0.007365 -0.011023 -0.011160
v -0.007365 -0.011023 -0.056109
v -0.009374 -0.009374 -0.011160
v -0.009374 -0.009374 -0.056109
v -0.011023 -0.007365 -0.011160
v -0.011023 -0.007365 -0.056109
v -0.012248 -0.005073 -0.011160
v -0.012248 -0.005073 -0.056109
v -0.013002 -0.002586 -0.011160
v -0.013002 -0.002586 -0.056109
v -0.013257 -0.000000 -0.011160
v -0.013257 -0.000000 -0.056109
v -0.013002 0.002586 -0.011160
v -0.013002 0.002586 -0.056109
v -0.012248 0.005073 -0.011160
v -0.012248 0.005073 -0.056109
v -0.011023 0.007365 -0.011160
v -0.011023 0.007365 -0.056109
v -0.009374 0.009374 -0.011160
v -0.009374 0.009374 -0.056109
v -0.007365 0.011023 -0.011160
v -0.007365 0.011023 -0.056109
v -0.005073 0.012248 -0.011160
v -0.005073 0.012248 -0.056109
v -0.002586 0.013002 -0.011160
v -0.002586 0.013002 -0.056109
v 0.000000 0.013257 -0.011160
v 0.000000 0.013257 -0.056109
v 0.002586 0.013002 -0.011160
v 0.002586 0.013002 -0.056109
v 0.005073 0.012248 -0.011160
v 0.005073 0.012248 -0.056109
v 0.007365 0.011023 -0.011160
v 0.007365 0.011023 -0.056109
v 0.009374 0.009374 -0.011160
v 0.009374 0.009374 -0.056109
v 0.011023 0.007365 -0.011160
v 0.011023 0.007365 -0.056109
v 0.012248 0.005073 -0.011160
v 0.012248 0.005073 -0.056109
v 0.013002 0.002586 -0.011160
v 0.013002 0.002586 -0.056109
v 0.013257 -0.000000 -0.011160
v 0.013257 -0.000000 -0.056109
v 0.013002 -0.002586 -0.011160
v 0.013002 -0.002586 -0.056109
v 0.012248 -0.005073 -0.011160
v 0.012248 -0.005073 -0.056109
v 0.011023 -0.007365 -0.011160
v 0.011023 -0.007365 -0.056109
v 0.009374 -0.009374 -0.011160
v 0.009374 -0.009374 -0.056109
v 0.007365 -0.011023 -0.011160
v 0.007365 -0.011023 -0.056109
v 0.005073 -0.012248 -0.011160
v 0.005073 -0.012248 -0.056109
v 0.002586 -0.013002 -0.011160
v 0.002586 -0.013002 -0.056109
vt 1.000000 0.000000
vt 0.000000 0.000000
vt 0.000000 1.000000
vt 1.000000 0.000000
vt 0.000000 0.000000
vt 0.000000 1.000000
vt 1.000000 0.000000
vt 0.000000 0.000000
vt 0.000000 1.000000
vt 1.000000 0.000000
vt 0.000000 0.000000
vt 0.000000 1.000000
vt 1.000000 0.000000
vt 0.000000 0.000000
vt 0.000000 1.000000
vt 1.000000 0.000000
vt 0.000000 0.000000
vt 0.000000 1.000000
vt 1.000000 0.000000
vt 0.000000 0.000000
vt 0.000000 1.000000
vt 1.000000 0.000000
vt 0.000000 0.000000
vt 0.000000 1.000000
vt 1.000000 0.000000
vt 0.000000 0.000000
vt 0.000000 1.000000
vt 1.000000 0.000000
vt 0.000000 0.000000
vt 0.000000 1.000000
vt 1.000000 0.000000
vt 0.000000 0.000000
vt 0.000000 1.000000
vt 1.000000 0.000000
vt 0.000000 0.000000
vt 0.000000 1.000000
vt 1.000000 0.000000
vt 0.000000 0.000000
vt 0.000000 1.000000
vt 1.000000 0.000000
vt 0.000000 0.000000
vt 0.000000 1.000000
vt 1.000000 0.000000
vt 0.000000 0.000000
vt 0.000000 1.000000
vt 1.000000 0.000000
vt 0.000000 0.000000
vt 0.000000 1.000000
vt 1.000000 0.000000
vt 0.000000 0.000000
vt 0.000000 1.000000
vt 1.000000 0.000000
vt 0.000000 0.000000
vt 0.000000 1.000000
vt 1.000000 0.000000
vt 0.000000 0.000000
vt 0.000000 1.000000
vt 1.000000 0.000000
vt 0.000000 0.000000
vt 0.000000 1.000000
vt 1.000000 0.000000
vt 0.000000 0.000000
vt 0.000000 1.000000
vt 1.000000 0.000000
vt 0.000000 0.000000
vt 0.000000 1.000000
vt 1.000000 0.000000
vt 0.000000 0.000000
vt 0.000000 1.000000
vt 1.000000 0.000000
vt 0.000000 0.000000
vt 0.000000 1.000000
vt 1.000000 0.000000
vt 0.000000 0.000000
vt 0.000000 1.000000
vt 1.000000 0.000000
vt 0.000000 0.000000
vt 0.000000 1.000000
vt 1.000000 0.000000
vt 0.000000 0.000000
vt 0.000000 1.000000
vt 1.000000 0.000000
vt 0.000000 0.000000
vt 0.000000 1.000000
vt 1.000000 0.000000
vt 0.000000 0.000000
vt 0.000000 1.000000
vt 1.000000 0.000000
vt 0.000000 0.000000
vt 0.000000 1.000000
vt 0.990393 0.597545
vt 0.009607 0.402455
vt 0.597545 0.009607
vt 1.000000 0.000000
vt 0.000000 0.000000
vt 0.000000 1.000000
vt 1.000000 0.000000
vt 0.000000 0.000000
vt 0.000000 1.000000
vt 0.990393 0.597545
vt 0.009607 0.402455
vt 0.597545 0.009607
vt 1.000000 1.000000
vt 1.000000 1.000000
vt 1.000000 1.000000
vt 1.000000 1.000000
vt 1.000000 1.000000
vt 1.000000 1.000000
vt 1.000000 1.000000
vt 1.000000 1.000000
vt 1.000000 1.000000
vt 1.000000 1.000000
vt 1.000000 1.000000
vt 1.000000 1.000000
vt 1.000000 1.000000
vt 1.000000 1.000000
vt 1.000000 1.000000
vt 1.000000 1.000000
vt 1.000000 1.000000
vt 1.000000 1.000000
vt 1.000000 1.000000
vt 1.000000 1.000000
vt 1.000000 1.000000
vt 1.000000 1.000000
vt 1.000000 1.000000
vt 1.000000 1.000000
vt 1.000000 1.000000
vt 1.000000 1.000000
vt 1.000000 1.000000
vt 1.000000 1.000000
vt 1.000000 1.000000
vt 1.000000 1.000000
vt 0.402456 0.990393
vt 0.597545 0.990393
vt 0.500000 1.000000
vt 0.691342 0.961940
vt 0.777785 0.915735
vt 0.915735 0.777785
vt 0.853553 0.853553
vt 0.961940 0.691342
vt 0.990393 0.402455
vt 1.000000 0.500000
vt 0.961940 0.308658
vt 0.915735 0.222215
vt 0.853553 0.146447
vt 0.777785 0.084265
vt 0.691342 0.038060
vt 0.402455 0.009607
vt 0.500000 0.000000
vt 0.222215 0.084265
vt 0.308658 0.038060
vt 0.084265 0.222215
vt 0.146446 0.146447
vt 0.038060 0.308659
vt 0.009607 0.597546
vt 0.000000 0.500000
vt 0.038060 0.691342
vt 0.084266 0.777786
vt 0.222215 0.915735
vt 0.146447 0.853554
vt 0.308659 0.961940
vt 1.000000 1.000000
vt 1.000000 1.000000
vt 0.402456 0.990393
vt 0.597545 0.990393
vt 0.500000 1.000000
vt 0.777785 0.915735
vt 0.691342 0.961940
vt 0.915735 0.777785
vt 0.853553 0.853553
vt 0.961940 0.691342
vt 0.990393 0.402455
vt 1.000000 0.500000
vt 0.961940 0.308658
vt 0.915735 0.222215
vt 0.853553 0.146447
vt 0.777785 0.084265
vt 0.691342 0.038060
vt 0.402455 0.009607
vt 0.500000 0.000000
vt 0.222215 0.084265
vt 0.308658 0.038060
vt 0.084265 0.222215
vt 0.146446 0.146447
vt 0.038060 0.308659
vt 0.009607 0.597546
vt 0.000000 0.500000
vt 0.084266 0.777786
vt 0.038060 0.691342
vt 0.146447 0.853554
vt 0.222215 0.915735
vt 0.308659 0.961940
vn 0.0000 -0.7279 -0.6857
vn 0.0000 -0.7279 0.6857
vn -0.1420 -0.7139 0.6857
vn -0.1420 -0.7139 -0.6857
vn -0.2785 -0.6725 0.6857
vn -0.2785 -0.6725 -0.6857
vn -0.4044 -0.6052 0.6857
vn -0.4044 -0.6052 -0.6857
vn -0.5147 -0.5147 0.6857
vn -0.5147 -0.5147 -0.6857
vn -0.6052 -0.4044 0.6857
vn -0.6052 -0.4044 -0.6857
vn -0.6725 -0.2785 0.6857
vn -0.6725 -0.2785 -0.6857
vn -0.7139 -0.1420 0.6857
vn -0.7139 -0.1420 -0.6857
vn -0.7279 0.0000 0.6857
vn -0.7279 0.0000 -0.6857
vn -0.7139 0.1420 0.6857
vn -0.7139 0.1420 -0.6857
vn -0.6725 0.2785 0.6857
vn -0.6725 0.2785 -0.6857
vn -0.6052 0.4044 0.6857
vn -0.6052 0.4044 -0.6857
vn -0.5147 0.5147 0.6857
vn -0.5147 0.5147 -0.6857
vn -0.4044 0.6052 0.6857
vn -0.4044 0.6052 -0.6857
vn -0.2785 0.6725 0.6857
vn -0.2785 0.6725 -0.6857
vn -0.1420 0.7139 0.6857
vn -0.1420 0.7139 -0.6857
vn 0.0000 0.7279 0.6857
vn 0.0000 0.7279 -0.6857
vn 0.1420 0.7139 0.6857
vn 0.1420 0.7139 -0.6857
vn 0.2785 0.6725 0.6857
vn 0.2785 0.6725 -0.6857
vn 0.4044 0.6052 0.6857
vn 0.4044 0.6052 -0.6857
vn 0.5147 0.5147 0.6857
vn 0.5147 0.5147 -0.6857
vn 0.6052 0.4044 0.6857
vn 0.6052 0.4044 -0.6857
vn 0.6725 0.2785 0.6857
vn 0.6725 0.2785 -0.6857
vn 0.7139 0.1420 0.6857
vn 0.7139 0.1420 -0.6857
vn 0.7279 0.0000 0.6857
vn 0.7279 0.0000 -0.6857
vn 0.7139 -0.1420 0.6857
vn 0.7139 -0.1420 -0.6857
vn 0.6725 -0.2785 0.6857
vn 0.6725 -0.2785 -0.6857
vn 0.6052 -0.4044 0.6857
vn 0.6052 -0.4044 -0.6857
vn 0.5147 -0.5147 0.6857
vn 0.5147 -0.5147 -0.6857
vn 0.4044 -0.6052 0.6857
vn 0.4044 -0.6052 -0.6857
vn 0.2785 -0.6725 0.6857
vn 0.2785 -0.6725 -0.6857
vn 0.1420 -0.7139 0.6857
vn 0.1420 -0.7139 -0.6857
s 1
f 2/1/1 1/2/2 3/3/3
f 4/4/4 3/5/3 5/6/5
f 6/7/6 5/8/5 7/9/7
f 8/10/8 7/11/7 9/12/9
f 10/13/10 9/14/9 11/15/11
f 12/16/12 11/17/11 13/18/13
f 14/19/14 13/20/13 15/21/15
f 16/22/16 15/23/15 17/24/17
f 18/25/18 17/26/17 19/27/19
f 20/28/20 19/29/19 21/30/21
f 22/31/22 21/32/21 23/33/23
f 24/34/24 23/35/23 25/36/25
f 26/37/26 25/38/25 27/39/27
f 28/40/28 27/41/27 29/42/29
f 30/43/30 29/44/29 31/45/31
f 32/46/32 31/47/31 33/48/33
f 34/49/34 33/50/33 35/51/35
f 36/52/36 35/53/35 37/54/37
f 38/55/38 37/56/37 39/57/39
f 40/58/40 39/59/39 41/60/41
f 42/61/42 41/62/41 43/63/43
f 44/64/44 43/65/43 45/66/45
f 46/67/46 45/68/45 47/69/47
f 48/70/48 47/71/47 49/72/49
f 50/73/50 49/74/49 51/75/51
f 52/76/52 51/77/51 53/78/53
f 54/79/54 53/80/53 55/81/55
f 56/82/56 55/83/55 57/84/57
f 58/85/58 57/86/57 59/87/59
f 60/88/60 59/89/59 61/90/61
f 54/91/54 22/92/22 38/93/38
f 62/94/62 61/95/61 63/96/63
f 64/97/64 63/98/63 1/99/2
f 15/100/15 47/101/47 31/102/31
f 2/1/1 3/3/3 4/103/4
f 4/4/4 5/6/5 6/104/6
f 6/7/6 7/9/7 8/105/8
f 8/10/8 9/12/9 10/106/10
f 10/13/10 11/15/11 12/107/12
f 12/16/12 13/18/13 14/108/14
f 14/19/14 15/21/15 16/109/16
f 16/22/16 17/24/17 18/110/18
f 18/25/18 19/27/19 20/111/20
f 20/28/20 21/30/21 22/112/22
f 22/31/22 23/33/23 24/113/24
f 24/34/24 25/36/25 26/114/26
f 26/37/26 27/39/27 28/115/28
f 28/40/28 29/42/29 30/116/30
f 30/43/30 31/45/31 32/117/32
f 32/46/32 33/48/33 34/118/34
f 34/49/34 35/51/35 36/119/36
f 36/52/36 37/54/37 38/120/38
f 38/55/38 39/57/39 40/121/40
f 40/58/40 41/60/41 42/122/42
f 42/61/42 43/63/43 44/123/44
f 44/64/44 45/66/45 46/124/46
f 46/67/46 47/69/47 48/125/48
f 48/70/48 49/72/49 50/126/50
f 50/73/50 51/75/51 52/127/52
f 52/76/52 53/78/53 54/128/54
f 54/79/54 55/81/55 56/129/56
f 56/82/56 57/84/57 58/130/58
f 58/85/58 59/87/59 60/131/60
f 60/88/60 61/90/61 62/132/62
f 6/133/6 2/134/1 4/135/4
f 2/134/1 6/133/6 64/136/64
f 64/136/64 6/133/6 62/137/62
f 62/137/62 58/138/58 60/139/60
f 58/138/58 54/91/54 56/140/56
f 54/91/54 50/141/50 52/142/52
f 50/141/50 54/91/54 48/143/48
f 48/143/48 54/91/54 46/144/46
f 46/144/46 38/93/38 44/145/44
f 44/145/44 38/93/38 42/146/42
f 42/146/42 38/93/38 40/147/40
f 38/93/38 34/148/34 36/149/36
f 34/148/34 30/150/30 32/151/32
f 30/150/30 26/152/26 28/153/28
f 26/152/26 22/92/22 24/154/24
f 22/92/22 18/155/18 20/156/20
f 18/155/18 22/92/22 16/157/16
f 16/157/16 22/92/22 14/158/14
f 14/158/14 10/159/10 12/160/12
f 10/159/10 6/133/6 8/161/8
f 62/137/62 6/133/6 58/138/58
f 58/138/58 6/133/6 54/91/54
f 38/93/38 22/92/22 34/148/34
f 34/148/34 22/92/22 30/150/30
f 30/150/30 22/92/22 26/152/26
f 14/158/14 22/92/22 10/159/10
f 10/159/10 22/92/22 6/133/6
f 54/91/54 38/93/38 46/144/46
f 6/133/6 22/92/22 54/91/54
f 62/94/62 63/96/63 64/162/64
f 64/97/64 1/99/2 2/163/1
f 63/164/63 3/165/3 1/166/2
f 3/165/3 7/167/7 5/168/5
f 7/167/7 11/169/11 9/170/9
f 11/169/11 7/167/7 13/171/13
f 13/171/13 7/167/7 15/100/15
f 15/100/15 19/172/19 17/173/17
f 19/172/19 15/100/15 21/174/21
f 21/174/21 15/100/15 23/175/23
f 23/175/23 31/102/31 25/176/25
f 25/176/25 31/102/31 27/177/27
f 27/177/27 31/102/31 29/178/29
f 31/102/31 35/179/35 33/180/33
f 35/179/35 39/181/39 37/182/37
f 39/181/39 43/183/43 41/184/41
f 43/183/43 47/101/47 45/185/45
f 47/101/47 51/186/51 49/187/49
f 51/186/51 55/188/55 53/189/53
f 55/188/55 63/164/63 57/190/57
f 57/190/57 63/164/63 59/191/59
f 59/191/59 63/164/63 61/192/61
f 63/164/63 7/167/7 3/165/3
f 31/102/31 47/101/47 35/179/35
f 35/179/35 47/101/47 39/181/39
f 39/181/39 47/101/47 43/183/43
f 47/101/47 63/164/63 51/186/51
f 51/186/51 63/164/63 55/188/55
f 63/164/63 15/100/15 7/167/7
f 15/100/15 31/102/31 23/175/23
f 63/164/63 47/101/47 15/100/15
