# Blender v2.79 (sub 0) OBJ File: 'hapticsScene.blend'
# www.blender.org
o Cylinder.001
v -0.573203 -0.004265 -0.078245
v 0.497578 -0.004265 -0.078245
v -0.573203 -0.016152 -0.077075
v 0.497578 -0.016152 -0.077075
v -0.573203 -0.027582 -0.073607
v 0.497578 -0.027581 -0.073607
v -0.573203 -0.038115 -0.067977
v 0.497578 -0.038115 -0.067977
v -0.573203 -0.047349 -0.060399
v 0.497578 -0.047348 -0.060399
v -0.573203 -0.054926 -0.051166
v 0.497578 -0.054926 -0.051166
v -0.573203 -0.060556 -0.040633
v 0.497578 -0.060556 -0.040633
v -0.573203 -0.064024 -0.029203
v 0.497578 -0.064024 -0.029203
v -0.573203 -0.065194 -0.017316
v 0.497578 -0.065194 -0.017316
v -0.573203 -0.064024 -0.005429
v 0.497578 -0.064024 -0.005429
v -0.573203 -0.060556 0.006001
v 0.497578 -0.060556 0.006001
v -0.573203 -0.054926 0.016535
v 0.497578 -0.054926 0.016535
v -0.573203 -0.047349 0.025768
v 0.497578 -0.047348 0.025768
v -0.573203 -0.038115 0.033345
v 0.497578 -0.038115 0.033345
v -0.573203 -0.027582 0.038976
v 0.497578 -0.027581 0.038976
v -0.573203 -0.016152 0.042443
v 0.497578 -0.016152 0.042443
v -0.573203 -0.004265 0.043614
v 0.497578 -0.004265 0.043614
v -0.573203 0.007622 0.042443
v 0.497578 0.007622 0.042443
v -0.573203 0.019052 0.038976
v 0.497578 0.019052 0.038976
v -0.573203 0.029586 0.033345
v 0.497578 0.029586 0.033345
v -0.573203 0.038819 0.025768
v 0.497578 0.038819 0.025768
v -0.573203 0.046396 0.016535
v 0.497578 0.046396 0.016535
v -0.573203 0.052027 0.006001
v 0.497578 0.052027 0.006001
v -0.573203 0.055494 -0.005429
v 0.497578 0.055494 -0.005429
v -0.573203 0.056665 -0.017316
v 0.497578 0.056665 -0.017316
v -0.573203 0.055494 -0.029203
v 0.497578 0.055494 -0.029203
v -0.573203 0.052027 -0.040633
v 0.497578 0.052027 -0.040633
v -0.573203 0.046396 -0.051166
v 0.497578 0.046396 -0.051166
v -0.573203 0.038819 -0.060400
v 0.497578 0.038819 -0.060400
v -0.573203 0.029586 -0.067977
v 0.497578 0.029586 -0.067977
v -0.573203 0.019052 -0.073607
v 0.497578 0.019052 -0.073607
v -0.573203 0.007622 -0.077075
v 0.497578 0.007622 -0.077075
vn 0.0000 0.1951 0.9808
vn 0.0000 0.0000 1.0000
vn 0.0000 0.3827 0.9239
vn 0.0000 0.5556 0.8314
vn 0.0000 0.7071 0.7071
vn 0.0000 0.8314 0.5556
vn 0.0000 0.9239 0.3827
vn 0.0000 0.9808 0.1951
vn 0.0000 1.0000 0.0000
vn 0.0000 0.9808 -0.1951
vn 0.0000 0.9239 -0.3827
vn 0.0000 0.8314 -0.5556
vn 0.0000 0.7071 -0.7071
vn 0.0000 0.5556 -0.8314
vn 0.0000 0.3827 -0.9239
vn 0.0000 0.1951 -0.9808
vn 0.0000 0.0000 -1.0000
vn 0.0000 -0.1951 -0.9808
vn 0.0000 -0.3827 -0.9239
vn 0.0000 -0.5556 -0.8314
vn 0.0000 -0.7071 -0.7071
vn 0.0000 -0.8314 -0.5556
vn 0.0000 -0.9239 -0.3827
vn 0.0000 -0.9808 -0.1951
vn 0.0000 -1.0000 0.0000
vn 0.0000 -0.9808 0.1951
vn 0.0000 -0.9239 0.3827
vn 0.0000 -0.8314 0.5556
vn 0.0000 -0.7071 0.7071
vn 0.0000 -0.5556 0.8314
vn 0.0000 -0.3827 0.9239
vn 0.0000 -0.1951 0.9808
s 1
f 3//1 2//2 1//2
f 5//3 4//1 3//1
f 7//4 6//3 5//3
f 9//5 8//4 7//4
f 11//6 10//5 9//5
f 13//7 12//6 11//6
f 15//8 14//7 13//7
f 17//9 16//8 15//8
f 19//10 18//9 17//9
f 21//11 20//10 19//10
f 23//12 22//11 21//11
f 25//13 24//12 23//12
f 27//14 26//13 25//13
f 29//15 28//14 27//14
f 31//16 30//15 29//15
f 33//17 32//16 31//16
f 35//18 34//17 33//17
f 37//19 36//18 35//18
f 39//20 38//19 37//19
f 41//21 40//20 39//20
f 43//22 42//21 41//21
f 45//23 44//22 43//22
f 47//24 46//23 45//23
f 49//25 48//24 47//24
f 51//26 50//25 49//25
f 53//27 52//26 51//26
f 55//28 54//27 53//27
f 57//29 56//28 55//28
f 59//30 58//29 57//29
f 61//31 60//30 59//30
f 63//32 62//31 61//31
f 1//2 64//32 63//32
f 3//1 4//1 2//2
f 5//3 6//3 4//1
f 7//4 8//4 6//3
f 9//5 10//5 8//4
f 11//6 12//6 10//5
f 13//7 14//7 12//6
f 15//8 16//8 14//7
f 17//9 18//9 16//8
f 19//10 20//10 18//9
f 21//11 22//11 20//10
f 23//12 24//12 22//11
f 25//13 26//13 24//12
f 27//14 28//14 26//13
f 29//15 30//15 28//14
f 31//16 32//16 30//15
f 33//17 34//17 32//16
f 35//18 36//18 34//17
f 37//19 38//19 36//18
f 39//20 40//20 38//19
f 41//21 42//21 40//20
f 43//22 44//22 42//21
f 45//23 46//23 44//22
f 47//24 48//24 46//23
f 49//25 50//25 48//24
f 51//26 52//26 50//25
f 53//27 54//27 52//26
f 55//28 56//28 54//27
f 57//29 58//29 56//28
f 59//30 60//30 58//29
f 61//31 62//31 60//30
f 63//32 64//32 62//31
f 1//2 2//2 64//32
