# Blender v2.79 (sub 0) OBJ File: 'hapticsScene.blend'
# www.blender.org
o Cylinder
v 0.000000 -0.013257 -0.011160
v 0.000000 -0.013257 -0.056109
v -0.002586 -0.013002 -0.011160
v -0.002586 -0.013002 -0.056109
v -0.005073 -0.012248 -0.011160
v -0.005073 -0.012248 -0.056109
v -0.007365 -0.011023 -0.011160
v -0.007365 -0.011023 -0.056109
v -0.009374 -0.009374 -0.011160
v -0.009374 -0.009374 -0.056109
v -0.011023 -0.007365 -0.011160
v -0.011023 -0.007365 -0.056109
v -0.012248 -0.005073 -0.011160
v -0.012248 -0.005073 -0.056109
v -0.013002 -0.002586 -0.011160
v -0.013002 -0.002586 -0.056109
v -0.013257 -0.000000 -0.011160
v -0.013257 -0.000000 -0.056109
v -0.013002 0.002586 -0.011160
v -0.013002 0.002586 -0.056109
v -0.012248 0.005073 -0.011160
v -0.012248 0.005073 -0.056109
v -0.011023 0.007365 -0.011160
v -0.011023 0.007365 -0.056109
v -0.009374 0.009374 -0.011160
v -0.009374 0.009374 -0.056109
v -0.007365 0.011023 -0.011160
v -0.007365 0.011023 -0.056109
v -0.005073 0.012248 -0.011160
v -0.005073 0.012248 -0.056109
v -0.002586 0.013002 -0.011160
v -0.002586 0.013002 -0.056109
v 0.000000 0.013257 -0.011160
v 0.000000 0.013257 -0.056109
v 0.002586 0.013002 -0.011160
v 0.002586 0.013002 -0.056109
v 0.005073 0.012248 -0.011160
v 0.005073 0.012248 -0.056109
v 0.007365 0.011023 -0.011160
v 0.007365 0.011023 -0.056109
v 0.009374 0.009374 -0.011160
v 0.009374 0.009374 -0.056109
v 0.011023 0.007365 -0.011160
v 0.011023 0.007365 -0.056109
v 0.012248 0.005073 -0.011160
v 0.012248 0.005073 -0.056109
v 0.013002 0.002586 -0.011160
v 0.013002 0.002586 -0.056109
v 0.013257 -0.000000 -0.011160
v 0.013257 -0.000000 -0.056109
v 0.013002 -0.002586 -0.011160
v 0.013002 -0.002586 -0.056109
v 0.012248 -0.005073 -0.011160
v 0.012248 -0.005073 -0.056109
v 0.011023 -0.007365 -0.011160
v 0.011023 -0.007365 -0.056109
v 0.009374 -0.009374 -0.011160
v 0.009374 -0.009374 -0.056109
v 0.007365 -0.011023 -0.011160
v 0.007365 -0.011023 -0.056109
v 0.005073 -0.012248 -0.011160
v 0.005073 -0.012248 -0.056109
v 0.002586 -0.013002 -0.011160
v 0.002586 -0.013002 -0.056109
vt 0.595482 0.334407
vt 0.595482 0.000000
vt 0.554685 0.000000
vt 0.554686 0.334407
vt 0.514673 0.000000
vt 0.514673 0.334407
vt 0.476982 0.000000
vt 0.476982 0.334407
vt 0.443061 0.000000
vt 0.443061 0.334407
vt 0.414213 0.000000
vt 0.264046 1.000000
vt 0.264046 0.665593
vt 0.230125 0.665593
vt 0.230125 1.000000
vt 0.192434 0.665593
vt 0.192434 1.000000
vt 0.152421 0.665593
vt 0.152421 1.000000
vt 0.111625 0.665593
vt 0.111625 1.000000
vt 0.071612 0.665593
vt 0.071612 1.000000
vt 0.033921 0.665593
vt 0.033921 1.000000
vt 0.000000 0.665593
vt 0.414213 0.334407
vt 0.414213 0.668814
vt 0.448134 0.668814
vt 0.448134 0.334407
vt 0.485826 0.668814
vt 0.485825 0.334407
vt 0.525838 0.668814
vt 0.525838 0.334407
vt 0.566635 0.668814
vt 0.566635 0.334407
vt 0.606647 0.668814
vt 0.606647 0.334407
vt 0.644338 0.668814
vt 0.644338 0.334407
vt 0.678259 0.668814
vt 0.678259 0.334407
vt 0.707107 0.668814
vt 0.707107 0.334407
vt 0.741028 0.668814
vt 0.741028 0.334407
vt 0.778719 0.668814
vt 0.778719 0.334407
vt 0.818731 0.668814
vt 0.818731 0.334407
vt 0.859528 0.668814
vt 0.859528 0.334407
vt 0.899540 0.668814
vt 0.899540 0.334407
vt 0.937231 0.668814
vt 0.937231 0.334407
vt 0.971153 0.668814
vt 0.971152 0.334407
vt 1.000000 0.668814
vt 0.735954 0.334407
vt 0.735954 0.000000
vt 0.707106 0.000000
vt 0.707106 0.334407
vt 0.673185 0.000000
vt 0.000000 0.515584
vt 0.414213 0.482806
vt 0.186708 0.332797
vt 0.673185 0.334407
vt 0.635494 0.000000
vt 0.635494 0.334407
vt 0.146696 0.006395
vt 0.267517 0.326402
vt 0.406254 0.117862
vt 0.414213 0.334407
vt 0.000000 1.000000
vt 1.000000 0.334407
vt 0.227505 0.665593
vt 0.146696 0.659199
vt 0.186708 0.665593
vt 0.109005 0.646655
vt 0.075084 0.628445
vt 0.023571 0.578014
vt 0.046237 0.605268
vt 0.007959 0.547732
vt 0.007959 0.450658
vt 0.000000 0.482806
vt 0.023571 0.420376
vt 0.046236 0.393122
vt 0.075084 0.369945
vt 0.109005 0.351735
vt 0.146696 0.339191
vt 0.267517 0.339191
vt 0.227505 0.332797
vt 0.339130 0.369945
vt 0.305209 0.351735
vt 0.390642 0.420376
vt 0.367977 0.393122
vt 0.406254 0.450658
vt 0.406254 0.547731
vt 0.414213 0.515584
vt 0.390642 0.578014
vt 0.367977 0.605268
vt 0.305209 0.646655
vt 0.339130 0.628445
vt 0.267518 0.659199
vt 0.007959 0.214935
vt 0.000000 0.150010
vt 0.000000 0.182787
vt 0.023571 0.087579
vt 0.007959 0.117862
vt 0.075084 0.037148
vt 0.046236 0.060326
vt 0.109005 0.018938
vt 0.227505 0.000000
vt 0.186708 0.000000
vt 0.267517 0.006395
vt 0.305208 0.018938
vt 0.339129 0.037148
vt 0.367977 0.060326
vt 0.390642 0.087579
vt 0.414213 0.182787
vt 0.414213 0.150009
vt 0.390642 0.245217
vt 0.406254 0.214935
vt 0.339129 0.295648
vt 0.367977 0.272471
vt 0.305208 0.313859
vt 0.186708 0.332797
vt 0.227505 0.332797
vt 0.109005 0.313858
vt 0.146696 0.326402
vt 0.075084 0.295648
vt 0.046236 0.272471
vt 0.023571 0.245217
vn 0.0000 -0.7279 -0.6857
vn 0.0000 -0.7279 0.6857
vn -0.1420 -0.7139 0.6857
vn -0.1420 -0.7139 -0.6857
vn -0.2785 -0.6725 0.6857
vn -0.2785 -0.6725 -0.6857
vn -0.4044 -0.6052 0.6857
vn -0.4044 -0.6052 -0.6857
vn -0.5147 -0.5147 0.6857
vn -0.5147 -0.5147 -0.6857
vn -0.6052 -0.4044 0.6857
vn -0.6052 -0.4044 -0.6857
vn -0.6725 -0.2785 0.6857
vn -0.6725 -0.2785 -0.6857
vn -0.7139 -0.1420 0.6857
vn -0.7139 -0.1420 -0.6857
vn -0.7279 0.0000 0.6857
vn -0.7279 0.0000 -0.6857
vn -0.7139 0.1420 0.6857
vn -0.7139 0.1420 -0.6857
vn -0.6725 0.2785 0.6857
vn -0.6725 0.2785 -0.6857
vn -0.6052 0.4044 0.6857
vn -0.6052 0.4044 -0.6857
vn -0.5147 0.5147 0.6857
vn -0.5147 0.5147 -0.6857
vn -0.4044 0.6052 0.6857
vn -0.4044 0.6052 -0.6857
vn -0.2785 0.6725 0.6857
vn -0.2785 0.6725 -0.6857
vn -0.1420 0.7139 0.6857
vn -0.1420 0.7139 -0.6857
vn 0.0000 0.7279 0.6857
vn 0.0000 0.7279 -0.6857
vn 0.1420 0.7139 0.6857
vn 0.1420 0.7139 -0.6857
vn 0.2785 0.6725 0.6857
vn 0.2785 0.6725 -0.6857
vn 0.4044 0.6052 0.6857
vn 0.4044 0.6052 -0.6857
vn 0.5147 0.5147 0.6857
vn 0.5147 0.5147 -0.6857
vn 0.6052 0.4044 0.6857
vn 0.6052 0.4044 -0.6857
vn 0.6725 0.2785 0.6857
vn 0.6725 0.2785 -0.6857
vn 0.7139 0.1420 0.6857
vn 0.7139 0.1420 -0.6857
vn 0.7279 0.0000 0.6857
vn 0.7279 0.0000 -0.6857
vn 0.7139 -0.1420 0.6857
vn 0.7139 -0.1420 -0.6857
vn 0.6725 -0.2785 0.6857
vn 0.6725 -0.2785 -0.6857
vn 0.6052 -0.4044 0.6857
vn 0.6052 -0.4044 -0.6857
vn 0.5147 -0.5147 0.6857
vn 0.5147 -0.5147 -0.6857
vn 0.4044 -0.6052 0.6857
vn 0.4044 -0.6052 -0.6857
vn 0.2785 -0.6725 0.6857
vn 0.2785 -0.6725 -0.6857
vn 0.1420 -0.7139 0.6857
vn 0.1420 -0.7139 -0.6857
s 1
f 2/1/1 1/2/2 3/3/3
f 4/4/4 3/3/3 5/5/5
f 6/6/6 5/5/5 7/7/7
f 8/8/8 7/7/7 9/9/9
f 10/10/10 9/9/9 11/11/11
f 12/12/12 11/13/11 13/14/13
f 14/15/14 13/14/13 15/16/15
f 16/17/16 15/16/15 17/18/17
f 18/19/18 17/18/17 19/20/19
f 20/21/20 19/20/19 21/22/21
f 22/23/22 21/22/21 23/24/23
f 24/25/24 23/24/23 25/26/25
f 26/27/26 25/28/25 27/29/27
f 28/30/28 27/29/27 29/31/29
f 30/32/30 29/31/29 31/33/31
f 32/34/32 31/33/31 33/35/33
f 34/36/34 33/35/33 35/37/35
f 36/38/36 35/37/35 37/39/37
f 38/40/38 37/39/37 39/41/39
f 40/42/40 39/41/39 41/43/41
f 42/44/42 41/43/41 43/45/43
f 44/46/44 43/45/43 45/47/45
f 46/48/46 45/47/45 47/49/47
f 48/50/48 47/49/47 49/51/49
f 50/52/50 49/51/49 51/53/51
f 52/54/52 51/53/51 53/55/53
f 54/56/54 53/55/53 55/57/55
f 56/58/56 55/57/55 57/59/57
f 58/60/58 57/61/57 59/62/59
f 60/63/60 59/62/59 61/64/61
f 54/65/54 22/66/22 38/67/38
f 62/68/62 61/64/61 63/69/63
f 64/70/64 63/69/63 1/2/2
f 15/71/15 47/72/47 31/73/31
f 2/1/1 3/3/3 4/4/4
f 4/4/4 5/5/5 6/6/6
f 6/6/6 7/7/7 8/8/8
f 8/8/8 9/9/9 10/10/10
f 10/10/10 11/11/11 12/74/12
f 12/12/12 13/14/13 14/15/14
f 14/15/14 15/16/15 16/17/16
f 16/17/16 17/18/17 18/19/18
f 18/19/18 19/20/19 20/21/20
f 20/21/20 21/22/21 22/23/22
f 22/23/22 23/24/23 24/25/24
f 24/25/24 25/26/25 26/75/26
f 26/27/26 27/29/27 28/30/28
f 28/30/28 29/31/29 30/32/30
f 30/32/30 31/33/31 32/34/32
f 32/34/32 33/35/33 34/36/34
f 34/36/34 35/37/35 36/38/36
f 36/38/36 37/39/37 38/40/38
f 38/40/38 39/41/39 40/42/40
f 40/42/40 41/43/41 42/44/42
f 42/44/42 43/45/43 44/46/44
f 44/46/44 45/47/45 46/48/46
f 46/48/46 47/49/47 48/50/48
f 48/50/48 49/51/49 50/52/50
f 50/52/50 51/53/51 52/54/52
f 52/54/52 53/55/53 54/56/54
f 54/56/54 55/57/55 56/58/56
f 56/58/56 57/59/57 58/76/58
f 58/60/58 59/62/59 60/63/60
f 60/63/60 61/64/61 62/68/62
f 6/77/6 2/78/1 4/79/4
f 2/78/1 6/77/6 64/80/64
f 64/80/64 6/77/6 62/81/62
f 62/81/62 58/82/58 60/83/60
f 58/82/58 54/65/54 56/84/56
f 54/65/54 50/85/50 52/86/52
f 50/85/50 54/65/54 48/87/48
f 48/87/48 54/65/54 46/88/46
f 46/88/46 38/67/38 44/89/44
f 44/89/44 38/67/38 42/90/42
f 42/90/42 38/67/38 40/91/40
f 38/67/38 34/92/34 36/93/36
f 34/92/34 30/94/30 32/95/32
f 30/94/30 26/96/26 28/97/28
f 26/96/26 22/66/22 24/98/24
f 22/66/22 18/99/18 20/100/20
f 18/99/18 22/66/22 16/101/16
f 16/101/16 22/66/22 14/102/14
f 14/102/14 10/103/10 12/104/12
f 10/103/10 6/77/6 8/105/8
f 62/81/62 6/77/6 58/82/58
f 58/82/58 6/77/6 54/65/54
f 38/67/38 22/66/22 34/92/34
f 34/92/34 22/66/22 30/94/30
f 30/94/30 22/66/22 26/96/26
f 14/102/14 22/66/22 10/103/10
f 10/103/10 22/66/22 6/77/6
f 54/65/54 38/67/38 46/88/46
f 6/77/6 22/66/22 54/65/54
f 62/68/62 63/69/63 64/70/64
f 64/70/64 1/2/2 2/1/1
f 63/106/63 3/107/3 1/108/2
f 3/107/3 7/109/7 5/110/5
f 7/109/7 11/111/11 9/112/9
f 11/111/11 7/109/7 13/113/13
f 13/113/13 7/109/7 15/71/15
f 15/71/15 19/114/19 17/115/17
f 19/114/19 15/71/15 21/116/21
f 21/116/21 15/71/15 23/117/23
f 23/117/23 31/73/31 25/118/25
f 25/118/25 31/73/31 27/119/27
f 27/119/27 31/73/31 29/120/29
f 31/73/31 35/121/35 33/122/33
f 35/121/35 39/123/39 37/124/37
f 39/123/39 43/125/43 41/126/41
f 43/125/43 47/72/47 45/127/45
f 47/72/47 51/128/51 49/129/49
f 51/128/51 55/130/55 53/131/53
f 55/130/55 63/106/63 57/132/57
f 57/132/57 63/106/63 59/133/59
f 59/133/59 63/106/63 61/134/61
f 63/106/63 7/109/7 3/107/3
f 31/73/31 47/72/47 35/121/35
f 35/121/35 47/72/47 39/123/39
f 39/123/39 47/72/47 43/125/43
f 47/72/47 63/106/63 51/128/51
f 51/128/51 63/106/63 55/130/55
f 63/106/63 15/71/15 7/109/7
f 15/71/15 31/73/31 23/117/23
f 63/106/63 47/72/47 15/71/15
