# Blender v2.76 (sub 0) OBJ File: ''
# www.blender.org
o Cylinder.001
v -0.535026 -0.011742 -0.059575
v 0.535755 0.000145 -0.060745
v -0.535026 0.000145 -0.060745
v -0.535026 -0.023172 -0.056107
v 0.535755 -0.011742 -0.059575
v -0.535026 -0.033705 -0.050477
v 0.535755 -0.023171 -0.056107
v -0.535026 -0.042939 -0.042899
v 0.535755 -0.033705 -0.050477
v -0.535026 -0.050516 -0.033666
v 0.535755 -0.042938 -0.042899
v -0.535026 -0.056146 -0.023133
v 0.535755 -0.050516 -0.033666
v -0.535026 -0.059614 -0.011703
v 0.535755 -0.056146 -0.023133
v -0.535026 -0.060784 0.000184
v 0.535755 -0.059614 -0.011703
v -0.535026 -0.059614 0.012071
v 0.535755 -0.060784 0.000184
v -0.535026 -0.056146 0.023501
v 0.535755 -0.059614 0.012071
v -0.535026 -0.050516 0.034035
v 0.535755 -0.056146 0.023501
v -0.535026 -0.042939 0.043268
v 0.535755 -0.050516 0.034035
v -0.535026 -0.033705 0.050845
v 0.535755 -0.042938 0.043268
v -0.535026 -0.023172 0.056476
v 0.535755 -0.033705 0.050845
v -0.535026 -0.011742 0.059943
v 0.535755 -0.023171 0.056476
v -0.535026 0.000145 0.061114
v 0.535755 -0.011742 0.059943
v -0.535026 0.012032 0.059943
v 0.535755 0.000145 0.061114
v -0.535026 0.023462 0.056476
v 0.535755 0.012032 0.059943
v -0.535026 0.033996 0.050845
v 0.535755 0.023462 0.056476
v -0.535026 0.043229 0.043268
v 0.535755 0.033996 0.050845
v -0.535026 0.050806 0.034035
v 0.535755 0.043229 0.043268
v -0.535026 0.056437 0.023501
v 0.535755 0.050806 0.034035
v -0.535026 0.059904 0.012071
v 0.535755 0.056437 0.023501
v -0.535026 0.061075 0.000184
v 0.535755 0.059904 0.012071
v -0.535026 0.059904 -0.011703
v 0.535755 0.061075 0.000184
v -0.535026 0.056437 -0.023133
v 0.535755 0.059904 -0.011703
v -0.535026 0.050806 -0.033666
v 0.535755 0.056437 -0.023133
v -0.535026 0.043229 -0.042900
v 0.535755 0.050806 -0.033666
v -0.535026 0.033996 -0.050477
v 0.535755 0.043229 -0.042900
v -0.535026 0.023462 -0.056107
v 0.535755 0.033996 -0.050477
v -0.535026 0.012032 -0.059575
v 0.535755 0.023462 -0.056107
v 0.535755 0.012032 -0.059575
vn 0.000000 0.195100 0.980800
vn 0.000000 -0.000000 1.000000
vn -0.000000 0.382700 0.923900
vn -0.000000 0.555600 0.831500
vn -0.000000 0.707100 0.707100
vn -0.000000 0.831500 0.555600
vn 0.000000 0.923900 0.382700
vn 0.000000 0.980800 0.195100
vn 0.000000 1.000000 0.000000
vn 0.000000 0.980800 -0.195100
vn 0.000000 0.923900 -0.382700
vn 0.000000 0.831500 -0.555500
vn -0.000000 0.707100 -0.707100
vn -0.000000 0.831500 -0.555600
vn -0.000000 0.555600 -0.831500
vn -0.000000 0.382700 -0.923900
vn -0.000000 0.195100 -0.980800
vn 0.000000 0.000000 -1.000000
vn 0.000000 -0.195100 -0.980800
vn 0.000000 -0.382700 -0.923900
vn 0.000000 -0.555600 -0.831500
vn 0.000000 -0.707100 -0.707100
vn 0.000000 -0.831500 -0.555600
vn 0.000000 -0.923900 -0.382700
vn 0.000000 -0.980800 -0.195100
vn 0.000000 -1.000000 -0.000000
vn 0.000000 -0.980800 0.195100
vn 0.000000 -0.923900 0.382700
vn 0.000000 -0.831500 0.555600
vn 0.000000 -0.707100 0.707100
vn 0.000000 -0.555500 0.831500
vn 0.000000 -0.382700 0.923900
vn 0.000000 -0.195100 0.980800
s 1
f 1//1 2//2 3//2
f 4//3 5//1 1//1
f 6//4 7//3 4//3
f 8//5 9//4 6//4
f 10//6 11//5 8//5
f 12//7 13//6 10//6
f 14//8 15//7 12//7
f 16//9 17//8 14//8
f 18//10 19//9 16//9
f 20//11 21//10 18//10
f 22//12 23//11 20//11
f 24//13 25//14 22//12
f 26//15 27//13 24//13
f 28//16 29//15 26//15
f 30//17 31//16 28//16
f 32//18 33//17 30//17
f 34//19 35//18 32//18
f 36//20 37//19 34//19
f 38//21 39//20 36//20
f 40//22 41//21 38//21
f 42//23 43//22 40//22
f 44//24 45//23 42//23
f 46//25 47//24 44//24
f 48//26 49//25 46//25
f 50//27 51//26 48//26
f 52//28 53//27 50//27
f 54//29 55//28 52//28
f 56//30 57//29 54//29
f 58//31 59//30 56//30
f 60//32 61//31 58//31
f 62//33 63//32 60//32
f 3//2 64//33 62//33
f 1//1 5//1 2//2
f 4//3 7//3 5//1
f 6//4 9//4 7//3
f 8//5 11//5 9//4
f 10//6 13//6 11//5
f 12//7 15//7 13//6
f 14//8 17//8 15//7
f 16//9 19//9 17//8
f 18//10 21//10 19//9
f 20//11 23//11 21//10
f 22//12 25//14 23//11
f 24//13 27//13 25//14
f 26//15 29//15 27//13
f 28//16 31//16 29//15
f 30//17 33//17 31//16
f 32//18 35//18 33//17
f 34//19 37//19 35//18
f 36//20 39//20 37//19
f 38//21 41//21 39//20
f 40//22 43//22 41//21
f 42//23 45//23 43//22
f 44//24 47//24 45//23
f 46//25 49//25 47//24
f 48//26 51//26 49//25
f 50//27 53//27 51//26
f 52//28 55//28 53//27
f 54//29 57//29 55//28
f 56//30 59//30 57//29
f 58//31 61//31 59//30
f 60//32 63//32 61//31
f 62//33 64//33 63//32
f 3//2 2//2 64//33
