# Blender v2.79 (sub 0) OBJ File: ''
# www.blender.org
o Cube.001
v 0.491311 -0.050650 -0.078648
v -0.491311 0.050650 -0.078648
v 0.491311 0.050650 -0.078648
v -0.491311 0.050650 0.022652
v 0.491311 0.048158 0.022652
v 0.491311 0.050650 0.022652
v 0.491311 -0.048158 -0.055478
v 0.491311 -0.050650 0.022652
v -0.491311 -0.050650 -0.078648
v -0.491311 0.048158 -0.055478
v 0.491311 0.048158 -0.055478
v -0.491311 -0.048158 0.022652
v 0.491311 -0.048158 0.022652
v -0.491311 0.048158 0.022652
v -0.491311 -0.048158 -0.055478
v -0.491311 -0.050650 0.022652
vt 1.000000 0.000000
vt 0.000000 1.000000
vt 0.000000 0.000000
vt 1.000000 0.000000
vt 0.000000 1.000000
vt 0.000000 0.000000
vt 0.500000 1.000000
vt 0.500000 0.000000
vt 0.146447 0.853553
vt 1.000000 0.000000
vt 0.000000 1.000000
vt 0.000000 0.000000
vt 0.500000 1.000000
vt 0.500000 0.000000
vt 0.146447 0.853553
vt 1.000000 0.000000
vt 0.000000 1.000000
vt 1.000000 0.000000
vt 0.000000 1.000000
vt 0.000000 0.000000
vt 1.000000 0.000000
vt 0.000000 1.000000
vt 0.000000 0.000000
vt 1.000000 0.000000
vt 0.000000 1.000000
vt 0.000000 0.000000
vt 1.000000 0.000000
vt 0.000000 1.000000
vt 0.000000 0.000000
vt 1.000000 1.000000
vt 1.000000 1.000000
vt 0.853553 0.853553
vt 0.853553 0.146447
vt 1.000000 0.500000
vt 0.146447 0.146447
vt 0.000000 0.500000
vt 1.000000 1.000000
vt 0.853553 0.853553
vt 0.853553 0.146447
vt 1.000000 0.500000
vt 0.146447 0.146447
vt 0.000000 0.500000
vt 1.000000 1.000000
vt 1.000000 1.000000
vt 1.000000 1.000000
vt 1.000000 1.000000
vn 0.0000 0.0000 -1.0000
vn 0.0000 0.0000 1.0000
vn 1.0000 -0.0000 0.0000
vn 0.0000 -1.0000 -0.0000
vn -1.0000 0.0000 0.0000
vn 0.0000 1.0000 0.0000
s 1
f 1/1/1 2/2/1 3/3/1
f 4/4/2 5/5/2 6/6/2
f 3/7/3 7/8/3 1/9/3
f 8/10/4 9/11/4 1/12/4
f 9/13/5 10/14/5 2/15/5
f 3/16/6 4/17/6 6/6/6
f 10/18/2 7/19/2 11/20/2
f 12/21/2 8/22/2 13/23/2
f 11/24/4 14/25/4 10/26/4
f 15/27/6 13/28/6 7/29/6
f 1/1/1 9/30/1 2/2/1
f 4/4/2 14/31/2 5/5/2
f 3/7/3 6/32/3 11/33/3
f 6/32/3 5/34/3 11/33/3
f 13/35/3 8/36/3 7/8/3
f 8/36/3 1/9/3 7/8/3
f 3/7/3 11/33/3 7/8/3
f 8/10/4 16/37/4 9/11/4
f 9/13/5 16/38/5 15/39/5
f 16/38/5 12/40/5 15/39/5
f 14/41/5 4/42/5 10/14/5
f 4/42/5 2/15/5 10/14/5
f 9/13/5 15/39/5 10/14/5
f 3/16/6 2/43/6 4/17/6
f 10/18/2 15/44/2 7/19/2
f 12/21/2 16/37/2 8/22/2
f 11/24/4 5/45/4 14/25/4
f 15/27/6 12/46/6 13/28/6
