# Blender v2.79 (sub 0) OBJ File: ''
# www.blender.org
o Cube.001
v 0.491311 -0.050650 -0.078648
v -0.491311 0.050650 -0.078648
v 0.491311 0.050650 -0.078648
v -0.491311 0.050650 0.022652
v 0.491311 0.048158 0.022652
v 0.491311 0.050650 0.022652
v 0.491311 -0.048158 -0.055478
v 0.491311 -0.050650 0.022652
v -0.491311 -0.050650 -0.078648
v -0.491311 0.048158 -0.055478
v 0.491311 0.048158 -0.055478
v -0.491311 -0.048158 0.022652
v 0.491311 -0.048158 0.022652
v -0.491311 0.048158 0.022652
v -0.491311 -0.048158 -0.055478
v -0.491311 -0.050650 0.022652
v 0.000000 0.048158 -0.055478
v 0.000000 -0.048158 -0.055478
v 0.245656 0.048158 -0.055478
v -0.245656 -0.048158 -0.055478
v 0.245656 -0.048158 -0.055478
v -0.245656 0.048158 -0.055478
v -0.245656 0.000000 -0.055478
v 0.368483 0.048158 -0.055478
v -0.368483 -0.048158 -0.055478
v 0.245656 0.000000 -0.055478
v 0.122828 -0.048158 -0.055478
v -0.491311 0.000000 -0.055478
v -0.122828 0.048158 -0.055478
v -0.122828 -0.048158 -0.055478
v 0.491311 0.000000 -0.055478
v 0.122828 0.048158 -0.055478
v 0.368483 -0.048158 -0.055478
v -0.368483 0.048158 -0.055478
v 0.000000 0.000000 -0.055478
v 0.122828 0.000000 -0.055478
v -0.368483 0.000000 -0.055478
v 0.368483 0.000000 -0.055478
v -0.122828 0.000000 -0.055478
vt 0.545269 0.620009
vt 0.545269 0.731120
vt 0.663154 0.953342
vt 0.542547 0.397384
vt 0.542547 0.286272
vt 0.660432 0.064050
vt 0.916057 0.132071
vt 0.843394 0.132071
vt 0.839634 0.111111
vt 0.058740 0.306860
vt 0.007073 0.006382
vt 0.058740 0.006382
vt 0.300225 0.627957
vt 0.439950 0.503725
vt 0.439950 0.627957
vt 0.992480 1.000000
vt 0.996239 0.111111
vt 0.996240 1.000000
vt 0.057903 0.307384
vt 0.006236 0.006906
vt 0.057903 0.006906
vt 0.300225 0.131029
vt 0.439950 0.006797
vt 0.439950 0.131029
vt 0.996240 1.000000
vt 1.000000 0.111111
vt 1.000000 1.000000
vt 0.916057 0.223708
vt 0.843394 0.223708
vt 0.839634 0.202748
vt 0.439648 0.504101
vt 0.299923 0.379869
vt 0.299923 0.504101
vt 0.439648 0.131405
vt 0.299923 0.007173
vt 0.299923 0.131405
vt 0.992479 0.202748
vt 0.992479 0.294385
vt 0.988719 0.223708
vt 0.988719 0.294385
vt 0.843394 0.294385
vt 0.839634 0.294385
vt 0.300225 0.876421
vt 0.439950 0.752189
vt 0.439950 0.876421
vt 0.300225 0.503725
vt 0.439950 0.379493
vt 0.992479 0.111111
vt 0.992479 0.202748
vt 0.988719 0.132071
vt 0.988719 0.202748
vt 0.843394 0.202748
vt 0.839634 0.202748
vt 0.300225 0.379493
vt 0.439950 0.255261
vt 0.439648 0.255637
vt 0.299923 0.255637
vt 0.439648 0.876797
vt 0.299923 0.752565
vt 0.299923 0.876797
vt 0.440029 0.999070
vt 0.299954 0.876117
vt 0.299954 0.999070
vt 0.300333 0.999070
vt 0.440408 0.876117
vt 0.440408 0.999070
vt 0.439648 0.379869
vt 0.008434 0.006906
vt 0.060102 0.307384
vt 0.008434 0.307384
vt 0.300225 0.255261
vt 0.439648 0.628333
vt 0.299923 0.628333
vt 0.439648 0.752565
vt 0.300225 0.752189
vt 0.545268 0.842231
vt 0.545268 0.953342
vt 0.663154 0.064453
vt 0.545269 0.508898
vt 0.545269 0.064453
vt 0.545269 0.175564
vt 0.545269 0.286675
vt 0.545269 0.397786
vt 0.542547 0.175161
vt 0.542547 0.064050
vt 0.660433 0.952939
vt 0.542547 0.508495
vt 0.542547 0.952939
vt 0.542547 0.841828
vt 0.542547 0.730717
vt 0.542547 0.619606
vt 0.007073 0.306860
vt 0.992479 0.111111
vt 0.006236 0.307384
vt 0.300225 0.006797
vt 0.996240 0.111111
vt 0.439648 0.007173
vt 0.440029 0.876117
vt 0.300333 0.876117
vt 0.060102 0.006906
vn 0.0000 1.0000 -0.0000
vn 0.0000 -1.0000 -0.0000
vn -1.0000 -0.0000 0.0000
vn 0.0000 0.0000 -1.0000
vn 0.0000 -0.0000 1.0000
vn 1.0000 -0.0000 0.0000
s 1
f 30/1/1 20/2/1 12/3/1
f 32/4/2 19/5/2 5/6/2
f 28/7/3 10/8/3 2/9/3
f 9/10/4 3/11/4 1/12/4
f 30/13/5 35/14/5 39/15/5
f 14/16/5 6/17/5 4/18/5
f 16/19/2 1/20/2 8/21/2
f 33/22/5 31/23/5 38/24/5
f 16/25/5 13/26/5 12/27/5
f 31/28/6 7/29/6 1/30/6
f 35/31/5 32/32/5 17/33/5
f 38/34/5 11/35/5 24/36/5
f 3/37/6 6/38/6 11/39/6
f 6/38/6 5/40/6 11/39/6
f 13/41/6 8/42/6 7/29/6
f 8/42/6 1/30/6 7/29/6
f 25/43/5 23/44/5 37/45/5
f 18/46/5 36/47/5 35/14/5
f 9/48/3 16/49/3 15/50/3
f 16/49/3 12/51/3 15/50/3
f 14/52/3 4/53/3 10/8/3
f 4/53/3 2/9/3 10/8/3
f 27/54/5 26/55/5 36/47/5
f 26/56/5 24/36/5 19/57/5
f 37/58/5 22/59/5 34/60/5
f 28/61/5 34/62/5 10/63/5
f 15/64/5 37/65/5 28/66/5
f 36/67/5 19/57/5 32/32/5
f 2/68/1 6/69/1 3/70/1
f 21/71/5 38/24/5 26/55/5
f 39/72/5 17/33/5 29/73/5
f 23/74/5 29/73/5 22/59/5
f 20/75/5 39/15/5 23/44/5
f 25/76/1 15/77/1 12/3/1
f 12/3/1 13/78/1 18/79/1
f 13/78/1 7/80/1 33/81/1
f 33/81/1 21/82/1 13/78/1
f 21/82/1 27/83/1 13/78/1
f 13/78/1 27/83/1 18/79/1
f 20/2/1 25/76/1 12/3/1
f 18/79/1 30/1/1 12/3/1
f 24/84/2 11/85/2 5/6/2
f 5/6/2 14/86/2 17/87/2
f 14/86/2 10/88/2 34/89/2
f 34/89/2 22/90/2 14/86/2
f 22/90/2 29/91/2 14/86/2
f 14/86/2 29/91/2 17/87/2
f 19/5/2 24/84/2 5/6/2
f 17/87/2 32/4/2 5/6/2
f 2/9/3 9/48/3 28/7/3
f 9/48/3 15/50/3 28/7/3
f 9/10/4 2/92/4 3/11/4
f 30/13/5 18/46/5 35/14/5
f 14/16/5 5/93/5 6/17/5
f 16/19/2 9/94/2 1/20/2
f 33/22/5 7/95/5 31/23/5
f 16/25/5 8/96/5 13/26/5
f 1/30/6 3/37/6 31/28/6
f 3/37/6 11/39/6 31/28/6
f 35/31/5 36/67/5 32/32/5
f 38/34/5 31/97/5 11/35/5
f 25/43/5 20/75/5 23/44/5
f 18/46/5 27/54/5 36/47/5
f 27/54/5 21/71/5 26/55/5
f 26/56/5 38/34/5 24/36/5
f 37/58/5 23/74/5 22/59/5
f 28/61/5 37/98/5 34/62/5
f 15/64/5 25/99/5 37/65/5
f 36/67/5 26/56/5 19/57/5
f 2/68/1 4/100/1 6/69/1
f 21/71/5 33/22/5 38/24/5
f 39/72/5 35/31/5 17/33/5
f 23/74/5 39/72/5 29/73/5
f 20/75/5 30/13/5 39/15/5
