# Blender v2.79 (sub 0) OBJ File: 'hapticsScene.blend'
# www.blender.org
o Trap_Cube
v 0.024052 -0.003142 -0.016336
v 0.024052 0.003273 -0.015060
v 0.024052 0.008711 -0.011426
v 0.024052 0.012345 -0.005987
v 0.024052 0.013621 0.000428
v 0.024052 0.012345 0.006843
v 0.024052 0.008711 0.012281
v 0.024052 0.003273 0.015915
v 0.024052 -0.003142 0.017191
v 0.024052 -0.009557 0.015915
v 0.024052 -0.014996 0.012281
v 0.024052 -0.018630 0.006843
v 0.024052 -0.019906 0.000428
v 0.024052 -0.018630 -0.005987
v 0.024052 -0.014996 -0.011426
v 0.024052 -0.009557 -0.015060
v 0.024052 0.007712 0.011282
v 0.024052 0.011040 0.006302
v 0.024052 0.012208 0.000428
v 0.024052 -0.017324 -0.005447
v 0.024052 -0.013997 -0.010427
v 0.024052 -0.018493 0.000428
v 0.024052 0.002732 0.014610
v 0.024052 -0.009017 0.014610
v 0.024052 -0.013997 0.011282
v 0.024052 -0.009017 -0.013754
v 0.024052 -0.017324 0.006302
v 0.024052 -0.003142 -0.014923
v 0.024052 0.002732 -0.013754
v 0.024052 -0.003142 0.015778
v 0.024052 0.011040 -0.005447
v 0.024052 0.007712 -0.010427
v -0.025680 -0.021224 0.018146
v -0.025680 0.013834 0.018146
v -0.025680 -0.021224 -0.016911
v -0.025680 0.013834 -0.016911
v 0.009378 -0.021224 0.018146
v 0.009378 0.013834 0.018146
v 0.009378 -0.021224 -0.016911
v 0.009378 0.013834 -0.016911
v -0.026635 -0.022179 0.019101
v -0.026635 0.014789 0.019101
v -0.026635 -0.022179 -0.017866
v -0.026635 0.014789 -0.017866
v 0.010332 -0.022179 0.019101
v 0.010332 0.014789 0.019101
v 0.010332 -0.022179 -0.017866
v 0.010332 0.014789 -0.017866
v 0.010332 -0.009306 -0.005736
v 0.009590 -0.007561 -0.003409
v 0.010332 -0.006478 -0.007625
v 0.009590 -0.005800 -0.004585
v 0.010213 -0.003724 -0.004976
v 0.010332 -0.011195 -0.002908
v 0.009590 -0.008737 -0.001649
v 0.010213 -0.005792 -0.004564
v 0.010213 -0.007545 -0.003393
v 0.010332 -0.011859 0.000428
v 0.009590 -0.009150 0.000428
v 0.010213 -0.008716 -0.001640
v 0.010213 -0.009127 0.000428
v 0.010213 -0.007545 0.004249
v 0.010332 -0.011195 0.003764
v 0.009590 -0.008737 0.002504
v 0.010332 -0.006478 0.008481
v 0.009590 -0.005800 0.005441
v 0.010213 -0.008716 0.002496
v 0.010213 -0.005792 0.005420
v 0.010332 -0.009306 0.006591
v 0.009590 -0.007561 0.004264
v 0.010332 -0.003142 -0.008289
v 0.009590 -0.003724 -0.004998
v 0.010213 -0.003724 0.005831
v 0.010332 -0.003142 0.009145
v 0.009590 -0.003724 0.005854
v 0.010332 0.000193 -0.007625
v 0.009378 0.000041 -0.007257
v 0.010213 -0.001656 -0.004564
v 0.010213 -0.001656 0.005420
v 0.010213 0.000097 0.004249
v 0.010332 0.000193 0.008481
v 0.009378 0.000041 0.008113
v 0.010332 0.003021 -0.005736
v 0.009378 0.002740 -0.005454
v 0.010213 0.000097 -0.003393
v 0.010213 0.001268 -0.001640
v 0.010213 0.001268 0.002496
v 0.010332 0.003021 0.006591
v 0.009378 0.002740 0.006310
v 0.010332 0.004911 0.003764
v 0.009378 0.004543 0.003611
v 0.010332 0.004911 -0.002908
v 0.009378 0.004543 -0.002755
v 0.010213 0.001680 0.000428
v 0.010332 0.005574 0.000428
v 0.009378 0.005176 0.000428
vt 0.675960 0.017718
vt 0.677075 0.021011
vt 0.677283 0.016097
vt 0.673553 0.009394
vt 0.664797 0.009196
vt 0.685141 0.016006
vt 0.686671 0.020730
vt 0.686301 0.017075
vt 0.675707 0.019227
vt 0.182395 0.029208
vt 0.176604 0.033954
vt 0.000021 0.040650
vt 0.229919 0.032786
vt 0.299874 0.028428
vt 0.491575 0.034443
vt 0.488700 0.037471
vt 0.252853 0.040341
vt 0.317245 0.014189
vt 0.330757 0.035196
vt 0.494608 0.011603
vt 0.489679 0.013331
vt 0.673941 0.025584
vt 0.681987 0.029175
vt 0.665158 0.018269
vt 0.659808 0.014879
vt 0.659310 0.018221
vt 0.659202 0.011976
vt 0.666796 0.014768
vt 0.662088 0.012242
vt 0.663162 0.009246
vt 0.681675 0.005955
vt 0.671816 0.007650
vt 0.692857 0.005631
vt 0.690867 0.006760
vt 0.696795 0.020048
vt 0.700302 0.011419
vt 0.691328 0.014025
vt 0.672291 0.026852
vt 0.685141 0.021636
vt 0.418402 0.027533
vt 0.429243 0.024314
vt 0.433091 0.028953
vt 0.429917 0.043384
vt 0.460894 0.029337
vt 0.477094 0.030750
vt 0.474950 0.038570
vt 0.447147 0.009155
vt 0.488130 0.007572
vt 0.437977 0.027051
vt 0.469902 0.018438
vt 0.502391 0.008314
vt 0.666891 0.021542
vt 0.661900 0.023620
vt 0.691477 0.023777
vt 0.690166 0.028100
vt 0.665920 0.025727
vt 0.682007 0.005202
vt 0.706302 0.021675
vt 0.682180 0.029132
vt 0.576834 0.021217
vt 0.571769 0.022278
vt 0.589273 0.020769
vt 0.608653 0.022286
vt 0.635942 0.024700
vt 0.674627 0.027221
vt 0.731312 0.030449
vt 0.822199 0.030695
vt 0.999979 0.010501
vt 0.819335 0.000021
vt 0.726740 0.001264
vt 0.669954 0.006690
vt 0.631952 0.011824
vt 0.605093 0.016351
vt 0.586720 0.019673
vt 0.574990 0.022025
vt 0.582214 0.021504
vt 0.585332 0.021598
vt 0.812665 0.011054
vt 0.896075 0.012745
vt 0.814906 0.019634
vt 0.640863 0.014772
vt 0.679388 0.011964
vt 0.734978 0.010107
vt 0.692466 0.029089
vt 0.738618 0.022007
vt 0.700202 0.026507
vt 0.683336 0.022117
vt 0.644405 0.021546
vt 0.617300 0.020461
vt 0.663953 0.025653
vt 0.598345 0.019978
vt 0.614106 0.017891
vt 0.596078 0.020295
vt 0.660000 0.021342
vt 0.586713 0.020502
vt 0.659466 0.023701
vn 0.0000 0.0000 1.0000
vn -0.9999 0.0137 0.0027
vn 0.0000 0.0000 -1.0000
vn 0.0000 1.0000 0.0000
vn 0.0000 -1.0000 0.0000
vn -1.0000 0.0000 0.0000
vn 1.0000 -0.0000 0.0000
vn -0.0351 0.1950 0.9802
vn -0.0351 0.5552 0.8310
vn -0.0351 0.8310 0.5552
vn -0.0351 0.9802 0.1950
vn -0.0351 0.9802 -0.1950
vn -0.0351 0.8310 -0.5552
vn -0.0351 0.1950 -0.9802
vn -0.9716 -0.2321 -0.0462
vn -0.9999 0.0000 -0.0173
vn -0.9999 0.0027 -0.0135
vn -0.9998 0.0000 0.0178
vn -0.9999 0.0027 0.0138
vn -0.9999 0.0062 -0.0092
vn -0.9999 0.0093 -0.0062
vn -0.9999 0.0063 0.0094
vn -0.9999 0.0094 0.0063
vn -0.9998 0.0176 0.0000
vn -0.9999 0.0136 -0.0027
vn -0.8231 -0.3256 -0.4652
vn -0.8770 -0.2827 0.3886
vn 0.5499 0.0000 -0.8352
vn 0.4556 0.3406 -0.8224
vn 0.4556 0.0000 -0.8902
vn 0.5499 0.5906 -0.5906
vn 0.4556 0.6294 -0.6294
vn 0.4556 0.8224 -0.3406
vn 0.5499 0.8352 0.0000
vn 0.4556 0.8902 0.0000
vn 0.4556 0.8224 0.3406
vn 0.5499 0.7716 0.3196
vn 0.4556 0.6294 0.6294
vn 0.5499 0.3196 0.7716
vn 0.4556 0.3406 0.8224
vn 0.4556 0.0000 0.8902
vn 0.5499 -0.3196 0.7716
vn 0.4556 -0.3406 0.8224
vn 0.4556 -0.6294 0.6294
vn 0.5499 -0.5906 0.5906
vn 0.4556 -0.8224 0.3406
vn 0.5499 -0.7716 0.3196
vn 0.4556 -0.8902 0.0000
vn 0.5499 -0.8352 0.0000
vn 0.4556 -0.8224 -0.3406
vn 0.5499 -0.7716 -0.3196
vn 0.4556 -0.6294 -0.6294
vn 0.5499 -0.5906 -0.5906
vn 0.4556 -0.3406 -0.8224
vn 0.5499 -0.3196 -0.7716
vn 0.9126 -0.0016 0.4088
vn 0.9106 0.1568 0.3824
vn 0.9106 0.1568 -0.3824
vn 0.3012 0.0021 -0.9536
vn 0.9126 -0.0016 -0.4088
vn 0.9146 -0.1560 -0.3731
vn 0.9072 0.4206 0.0000
vn 0.2879 0.8851 -0.3657
vn 0.9076 0.3875 -0.1612
vn 0.2910 0.6776 -0.6754
vn 0.9088 0.2941 -0.2958
vn -0.3720 -0.6518 -0.6608
vn 0.9162 -0.2841 -0.2826
vn -0.2959 -0.2314 -0.9267
vn 0.9172 -0.3682 -0.1519
vn -0.3745 -0.9272 0.0000
vn 0.9176 -0.3974 0.0000
vn 0.3012 0.0021 0.9536
vn 0.9172 -0.3682 0.1519
vn -0.3739 -0.8556 0.3580
vn 0.9162 -0.2841 0.2826
vn 0.2879 0.8851 0.3657
vn 0.9076 0.3875 0.1612
vn 0.2910 0.6776 0.6754
vn 0.9088 0.2941 0.2958
vn -0.2959 -0.2314 0.9267
vn 0.9146 -0.1560 0.3731
vn -0.3739 -0.8556 -0.3580
vn 0.2957 0.3674 -0.8818
vn -0.3720 -0.6518 0.6608
vn 0.2957 0.3674 0.8818
vn -0.9942 -0.0769 0.0750
vn -0.9695 -0.1914 -0.1531
vn -0.7573 0.0392 0.6519
vn -0.7606 0.2478 -0.6000
vn -0.7574 0.0391 -0.6517
vn -0.9801 -0.1651 0.1100
vn -0.9942 -0.0769 -0.0750
vn -0.9946 -0.0961 -0.0391
vn -0.9946 -0.0961 0.0391
vn 0.5499 0.3196 -0.7716
vn 0.5499 0.7716 -0.3196
vn 0.5499 0.5906 0.5906
vn 0.5499 0.0000 0.8352
vn 0.2867 0.9580 0.0000
vn -0.7612 0.4585 -0.4585
vn -0.9947 -0.1025 0.0000
s off
f 39/1/1 36/2/1 35/3/1
f 59/4/2 55/5/2 39/1/2
f 33/6/3 38/7/3 37/8/3
f 33/6/4 39/1/4 35/3/4
f 38/7/5 36/2/5 40/9/5
f 42/10/6 43/11/6 41/12/6
f 44/13/3 47/14/3 43/11/3
f 58/15/7 63/16/7 45/17/7
f 46/18/1 41/12/1 45/17/1
f 47/14/5 41/12/5 43/11/5
f 44/13/4 46/18/4 48/19/4
f 95/20/7 92/21/7 48/19/7
f 96/22/6 91/23/6 38/7/6
f 72/24/8 56/25/8 53/26/8
f 57/27/9 52/28/9 50/29/9
f 60/30/10 50/29/10 55/5/10
f 59/4/11 60/30/11 55/5/11
f 64/31/12 61/32/12 59/4/12
f 62/33/13 64/31/13 70/34/13
f 75/35/14 68/36/14 66/37/14
f 94/38/15 91/23/15 96/22/15
f 36/2/7 33/6/7 35/3/7
f 39/1/1 40/9/1 36/2/1
f 37/8/16 38/7/16 75/35/16
f 37/8/17 75/35/17 66/37/17
f 72/24/18 40/9/18 39/1/18
f 52/28/19 72/24/19 39/1/19
f 37/8/20 66/37/20 70/34/20
f 37/8/21 70/34/21 64/31/21
f 50/29/22 52/28/22 39/1/22
f 55/5/23 50/29/23 39/1/23
f 39/1/24 37/8/24 59/4/24
f 37/8/25 64/31/25 59/4/25
f 33/6/3 34/39/3 38/7/3
f 33/6/4 37/8/4 39/1/4
f 38/7/5 34/39/5 36/2/5
f 42/10/6 44/13/6 43/11/6
f 44/13/3 48/19/3 47/14/3
f 47/14/7 48/19/7 71/40/7
f 47/14/7 71/40/7 51/41/7
f 74/42/7 46/18/7 45/17/7
f 65/43/7 74/42/7 45/17/7
f 47/14/7 51/41/7 49/44/7
f 47/14/7 49/44/7 54/45/7
f 69/46/7 65/43/7 45/17/7
f 63/16/7 69/46/7 45/17/7
f 45/17/7 47/14/7 58/15/7
f 47/14/7 54/45/7 58/15/7
f 46/18/1 42/10/1 41/12/1
f 47/14/5 45/17/5 41/12/5
f 44/13/4 42/10/4 46/18/4
f 46/18/7 74/42/7 81/47/7
f 46/18/7 81/47/7 88/48/7
f 76/49/7 71/40/7 48/19/7
f 83/50/7 76/49/7 48/19/7
f 46/18/7 88/48/7 90/51/7
f 46/18/7 90/51/7 95/20/7
f 92/21/7 83/50/7 48/19/7
f 46/18/7 95/20/7 48/19/7
f 40/9/26 72/24/26 77/52/26
f 40/9/6 77/52/6 84/53/6
f 82/54/27 75/35/27 38/7/27
f 89/55/6 82/54/6 38/7/6
f 40/9/6 84/53/6 93/56/6
f 40/9/6 93/56/6 96/22/6
f 91/23/6 89/55/6 38/7/6
f 40/9/6 96/22/6 38/7/6
f 72/24/8 52/28/8 56/25/8
f 57/27/9 56/25/9 52/28/9
f 60/30/10 57/27/10 50/29/10
f 59/4/11 61/32/11 60/30/11
f 64/31/12 67/57/12 61/32/12
f 62/33/13 67/57/13 64/31/13
f 75/35/14 73/58/14 68/36/14
f 94/38/15 87/59/15 91/23/15
f 36/2/7 34/39/7 33/6/7
s 1
f 71/40/28 2/60/29 1/61/30
f 2/60/29 83/50/31 3/62/32
f 83/50/31 4/63/33 3/62/32
f 4/63/33 95/20/34 5/64/35
f 95/20/34 6/65/36 5/64/35
f 90/51/37 7/66/38 6/65/36
f 7/66/38 81/47/39 8/67/40
f 81/47/39 9/68/41 8/67/40
f 9/68/41 65/43/42 10/69/43
f 65/43/42 11/70/44 10/69/43
f 69/46/45 12/71/46 11/70/44
f 63/16/47 13/72/48 12/71/46
f 58/15/49 14/73/50 13/72/48
f 54/45/51 15/74/52 14/73/50
f 49/44/53 16/75/54 15/74/52
f 51/41/55 1/61/30 16/75/54
f 28/76/56 26/77/57 16/75/54
f 24/78/58 73/58/59 30/79/60
f 30/79/60 23/80/61 8/67/40
f 22/81/62 67/57/63 27/82/64
f 27/82/64 62/33/65 25/83/66
f 23/80/61 80/84/67 17/85/68
f 30/79/60 79/86/69 23/80/61
f 18/87/70 94/38/71 19/88/72
f 53/26/73 26/77/57 28/76/56
f 94/38/71 31/89/74 19/88/72
f 86/90/75 32/91/76 31/89/74
f 60/30/77 22/81/62 20/92/78
f 57/27/79 20/92/78 21/93/80
f 78/94/81 28/76/56 29/95/82
f 17/85/68 87/59/83 18/87/70
f 25/83/66 68/36/84 24/78/58
f 85/96/85 29/95/82 32/91/76
f 56/25/86 21/93/80 26/77/57
f 86/90/75 84/53/87 85/96/85
f 85/96/85 77/52/88 78/94/81
f 78/94/81 72/24/89 53/26/73
f 62/33/65 66/37/90 68/36/84
f 75/35/91 79/86/69 73/58/59
f 82/54/92 80/84/67 79/86/69
f 87/59/83 89/55/93 91/23/94
f 94/38/71 93/56/95 86/90/75
f 71/40/28 76/49/96 2/60/29
f 2/60/29 76/49/96 83/50/31
f 83/50/31 92/21/97 4/63/33
f 4/63/33 92/21/97 95/20/34
f 95/20/34 90/51/37 6/65/36
f 90/51/37 88/48/98 7/66/38
f 7/66/38 88/48/98 81/47/39
f 81/47/39 74/42/99 9/68/41
f 9/68/41 74/42/99 65/43/42
f 65/43/42 69/46/45 11/70/44
f 69/46/45 63/16/47 12/71/46
f 63/16/47 58/15/49 13/72/48
f 58/15/49 54/45/51 14/73/50
f 54/45/51 49/44/53 15/74/52
f 49/44/53 51/41/55 16/75/54
f 51/41/55 71/40/28 1/61/30
f 16/75/54 1/61/30 28/76/56
f 1/61/30 2/60/29 28/76/56
f 2/60/29 3/62/32 32/91/76
f 3/62/32 4/63/33 32/91/76
f 4/63/33 5/64/35 19/88/72
f 4/63/33 19/88/72 31/89/74
f 14/73/50 15/74/52 21/93/80
f 15/74/52 16/75/54 21/93/80
f 22/81/62 13/72/48 14/73/50
f 20/92/78 22/81/62 14/73/50
f 4/63/33 31/89/74 32/91/76
f 21/93/80 20/92/78 14/73/50
f 2/60/29 32/91/76 29/95/82
f 2/60/29 29/95/82 28/76/56
f 26/77/57 21/93/80 16/75/54
f 24/78/58 68/36/84 73/58/59
f 12/71/46 13/72/48 22/81/62
f 12/71/46 22/81/62 27/82/64
f 10/69/43 11/70/44 25/83/66
f 11/70/44 12/71/46 25/83/66
f 8/67/40 9/68/41 30/79/60
f 9/68/41 10/69/43 30/79/60
f 6/65/36 7/66/38 17/85/68
f 7/66/38 8/67/40 17/85/68
f 19/88/72 5/64/35 6/65/36
f 18/87/70 19/88/72 6/65/36
f 12/71/46 27/82/64 25/83/66
f 17/85/68 18/87/70 6/65/36
f 10/69/43 25/83/66 24/78/58
f 10/69/43 24/78/58 30/79/60
f 23/80/61 17/85/68 8/67/40
f 22/81/62 61/32/100 67/57/63
f 27/82/64 67/57/63 62/33/65
f 23/80/61 79/86/69 80/84/67
f 30/79/60 73/58/59 79/86/69
f 18/87/70 87/59/83 94/38/71
f 53/26/73 56/25/86 26/77/57
f 94/38/71 86/90/75 31/89/74
f 86/90/75 85/96/85 32/91/76
f 60/30/77 61/32/100 22/81/62
f 57/27/79 60/30/77 20/92/78
f 78/94/81 53/26/73 28/76/56
f 17/85/68 80/84/67 87/59/83
f 25/83/66 62/33/65 68/36/84
f 85/96/85 78/94/81 29/95/82
f 56/25/86 57/27/79 21/93/80
f 86/90/75 93/56/95 84/53/87
f 85/96/85 84/53/87 77/52/88
f 78/94/81 77/52/88 72/24/89
f 62/33/65 70/34/101 66/37/90
f 75/35/91 82/54/92 79/86/69
f 82/54/92 89/55/93 80/84/67
f 87/59/83 80/84/67 89/55/93
f 94/38/71 96/22/102 93/56/95
